<?xml version="1.0" encoding="UTF-8"?>
<svg id="Layer_2" data-name="Layer 2" xmlns="http://www.w3.org/2000/svg" viewBox="0 0 180.09 20">
  <defs>
    <style>
      .cls-1 {
        fill: #1e3742;
        stroke-width: 0px;
      }
    </style>
  </defs>
  <g id="Layer_1-2" data-name="Layer 1">
    <g>
      <path class="cls-1" d="M169.64,12c0,.56-.06,1.09-.16,1.61-.23,1.19-.74,2.26-1.45,3.19-1.45,1.94-3.76,3.2-6.38,3.2h-19.57c-4.43-.01-7.99-3.59-7.99-8s3.56-7.99,7.99-8h24.42v3.2h-24.42c-2.66.01-4.79,2.15-4.79,4.8s2.13,4.79,4.79,4.8h19.57c2.08,0,3.86-1.34,4.53-3.19h-12.35c-.1-.52-.16-1.05-.16-1.61s.06-1.09.16-1.61h15.65c.1.52.16,1.05.16,1.61Z"/>
      <path class="cls-1" d="M25.62,16.8v3.2H8c-1.81,0-3.46-.59-4.8-1.61-.61-.45-1.15-.99-1.59-1.6-1.01-1.34-1.61-2.99-1.61-4.8v-7.99h3.2v7.99c0,2.66,2.15,4.8,4.8,4.8h17.62Z"/>
      <path class="cls-1" d="M131.06,4v8c0,2.62-1.26,4.95-3.2,6.39-1.04.8-2.29,1.34-3.64,1.52-.37.06-.75.09-1.15.09-2.08,0-3.96-.78-5.38-2.09l-.54-.54-4.25-4.25-4.46-4.45-.11-.11c-1.87-1.82-4.87-1.78-6.71.06-.94.94-1.41,2.16-1.41,3.4v7.98h-3.2v-7.99c0-2.04.78-4.09,2.35-5.65.27-.27.56-.52.85-.74,1.1-.84,2.36-1.35,3.67-1.52,2.4-.35,4.93.41,6.78,2.25l8.93,8.93c.09.1.24.24.33.33.84.75,1.95,1.2,3.17,1.2,2.65,0,4.79-2.15,4.79-4.8V4h3.2Z"/>
      <path class="cls-1" d="M61.31,20c-2.08,0-3.96-.78-5.38-2.09l-.54-.54-4.25-4.25-4.46-4.45-.11-.11c-1.87-1.82-4.87-1.78-6.71.06-.94.94-1.41,2.16-1.41,3.4v7.98h-3.2v-7.99c0-2.04.78-4.09,2.35-5.65.27-.27.56-.52.85-.74,1.1-.84,2.36-1.35,3.67-1.52,2.4-.35,4.93.41,6.78,2.25l8.93,8.93c.09.1.24.24.33.33.84.75,1.95,1.2,3.17,1.2s2.32-.45,3.17-1.2c.1-.1.24-.23.33-.33l8.93-8.93c1.84-1.84,4.38-2.6,6.78-2.25,1.31.17,2.57.68,3.67,1.52.3.22.58.47.85.74,1.57,1.56,2.35,3.61,2.35,5.65v7.99h-3.2v-7.98c0-1.24-.47-2.46-1.41-3.4-1.84-1.84-4.85-1.88-6.71-.06l-.11.11-4.46,4.45-4.25,4.25-.54.54c-1.42,1.31-3.3,2.09-5.38,2.09Z"/>
      <rect class="cls-1" x="90.59" y="4.01" width="3.2" height="15.99"/>
      <rect class="cls-1" x="28.82" y="4.01" width="3.2" height="15.99"/>
    </g>
    <path class="cls-1" d="M176.09,0c-2.21,0-4,1.79-4,4s1.79,4,4,4,4-1.79,4-4-1.79-4-4-4ZM176.09,7.32c-1.83,0-3.32-1.49-3.32-3.32s1.49-3.32,3.32-3.32,3.32,1.49,3.32,3.32-1.49,3.32-3.32,3.32ZM176.87,4.33c.31-.11.7-.44.7-1.06s-.41-1.17-1.29-1.17h-1.39s-.07.03-.07.07v3.66s.03.07.07.07h.49s.07-.03.07-.07v-1.39h.79l.67,1.42s.04.04.06.04h.55s.07-.03.07-.07c0-.01,0-.02,0-.03l-.72-1.47ZM176.18,3.94h-.73v-1.32h.74c.43,0,.72.23.72.67,0,.42-.27.65-.74.65h0Z"/>
  </g>
</svg>